<svg width="6" height="8" viewBox="0 0 6 8" fill="none" xmlns="http://www.w3.org/2000/svg">
<path d="M3 3.8C2.71584 3.8 2.44332 3.69464 2.24239 3.50711C2.04145 3.31957 1.92857 3.06522 1.92857 2.8C1.92857 2.53478 2.04145 2.28043 2.24239 2.09289C2.44332 1.90536 2.71584 1.8 3 1.8C3.28416 1.8 3.55668 1.90536 3.75761 2.09289C3.95855 2.28043 4.07143 2.53478 4.07143 2.8C4.07143 2.93132 4.04372 3.06136 3.98987 3.18268C3.93603 3.30401 3.85711 3.41425 3.75761 3.50711C3.65812 3.59997 3.54001 3.67362 3.41002 3.72388C3.28003 3.77413 3.1407 3.8 3 3.8ZM3 0C2.20435 0 1.44129 0.294999 0.87868 0.820101C0.31607 1.3452 0 2.05739 0 2.8C0 4.9 3 8 3 8C3 8 6 4.9 6 2.8C6 2.05739 5.68393 1.3452 5.12132 0.820101C4.55871 0.294999 3.79565 0 3 0Z" fill="#8B3C76"/>
</svg>
